# xmcd CD database file
#
# Track frame offsets:
#	150
#	12981
#	33456
#	44278
#	63667
#	85676
#	108552
#	148374
#	162381
#	180085
#	214117
#	242819
#	265748
#	289533
#	305875
#
# Disc length: 4738 seconds
#
# Revision: 1
# Processed by: cddbd v1.5.2PL0 Copyright (c) Steve Scherf et al.
# Submitted via: Feurio! 1.68 - http://www.feurio.com
#
DISCID=d812800f
DTITLE=Various Artist - aken
DYEAR=1900
DGENRE=blues
TTITLE0=??? - CDA01 aa Finn. - Half-moon Stunned
TTITLE1=??? - CDA02 Roxy Music - More Than This
TTITLE2=??? - CDA03 Cocteau Twins - Rilkean Heart
TTITLE3=??? - CDA04 Lacrimosa - Alleine Zu Zweit
TTITLE4=??? - CDA05 Bobo Stenson - Die Nachtigall
TTITLE5=??? - CDA06 Barzin - Pale Blue Eyes-repair
TTITLE6=??? - CDA07 King Crimson - Epitaph
TTITLE7=??? - CDA08 Oboken - Secrets
TTITLE8=??? - CDA09 Laibach - Rossiya
TTITLE9=??? - CDA10 Ketil Bjornstad - ii
TTITLE10=??? - CDA11 UNKLE - Rabbit In Your Headlights
TTITLE11=??? - CDA12 Anita Lane - Bella Ciao
TTITLE12=??? - CDA13 The Zephyrs - Go Slow
TTITLE13=??? - CDA14 Micah P. Hinson - The Dream You Left Behind
TTITLE14=??? - CDA15 The Evpatoria Report - Taijin Kyofusho
EXTD=
EXTT0=
EXTT1=
EXTT2=
EXTT3=
EXTT4=
EXTT5=
EXTT6=
EXTT7=
EXTT8=
EXTT9=
EXTT10=
EXTT11=
EXTT12=
EXTT13=
EXTT14=
PLAYORDER=
